<svg height="511pt" viewBox="0 1 511.99974 511" width="511pt" xmlns="http://www.w3.org/2000/svg"><path d="m408.082031 275.855469-227.710937.964843 86.292968 85.566407-28.164062 28.402343-134.78125-133.644531 133.644531-134.78125 28.402344 28.164063-85.566406 86.292968 227.714843-.964843zm103.914063-20.441407c.292968 68.378907-26.0625 132.777344-74.210938 181.332032-48.144531 48.558594-112.320312 75.460937-180.699218 75.75-.371094 0-.746094.003906-1.117188.003906-67.964844 0-131.925781-26.332031-180.21875-74.214844-48.554688-48.144531-75.457031-112.320312-75.74609375-180.699218-.29296825-68.378907 26.06249975-132.777344 74.21093775-181.335938 48.144531-48.554688 112.316406-75.457031 180.699218-75.75h1.117188c67.964844 0 131.925781 26.328125 180.21875 74.214844 48.554688 48.144531 75.457031 112.320312 75.746094 180.699218zm-40 .167969c-.242188-57.695312-22.941406-111.839843-63.910156-152.464843-40.746094-40.402344-94.71875-62.617188-152.058594-62.617188-.316406 0-.628906 0-.945313 0-119.101562.507812-215.585937 97.816406-215.078125 216.917969.242188 57.691406 22.941406 111.839843 63.910156 152.464843 40.746094 40.398438 94.71875 62.617188 152.058594 62.617188.316406 0 .628906 0 .945313-.003906 119.101562-.503906 215.585937-97.8125 215.078125-216.914063zm0 0"/></svg>